<?xml version="1.0" encoding="UTF-8" standalone="no"?>
<svg
   height="512px"
   id="Layer_1"
   style="enable-background:new 0 0 512 512;"
   version="1.1"
   viewBox="0 0 512 512"
   width="512px"
   xml:space="preserve"
   sodipodi:docname="wordpress.svg"
   inkscape:version="1.2.2 (732a01da63, 2022-12-09, custom)"
   xmlns:inkscape="http://www.inkscape.org/namespaces/inkscape"
   xmlns:sodipodi="http://sodipodi.sourceforge.net/DTD/sodipodi-0.dtd"
   xmlns="http://www.w3.org/2000/svg"
   xmlns:svg="http://www.w3.org/2000/svg"><defs
     id="defs228" /><sodipodi:namedview
     id="namedview226"
     pagecolor="#ffffff"
     bordercolor="#666666"
     borderopacity="1.0"
     inkscape:showpageshadow="2"
     inkscape:pageopacity="0.0"
     inkscape:pagecheckerboard="0"
     inkscape:deskcolor="#d1d1d1"
     showgrid="false"
     inkscape:zoom="0.921875"
     inkscape:cx="274.44068"
     inkscape:cy="330.84746"
     inkscape:window-width="1728"
     inkscape:window-height="1003"
     inkscape:window-x="0"
     inkscape:window-y="0"
     inkscape:window-maximized="1"
     inkscape:current-layer="Layer_1" /><path
     d="M 255.75154,1.2492717 C 115.56973,1.2492717 1.2492717,115.56973 1.2492717,256.01679 c 0,140.31444 114.3204583,254.50228 254.5022683,254.50228 11.27291,0 22.28056,-0.66312 33.02297,-2.3872 113.65735,-14.58846 203.97316,-104.37378 219.22473,-217.63327 1.72409,-11.2729 2.51983,-22.81105 2.51983,-34.48181 0,-140.44706 -114.32046,-254.7675183 -254.76753,-254.7675183 z M 26.978006,256.01679 c 0,-33.15559 7.161607,-64.71971 19.893356,-93.10088 L 156.01955,461.97929 C 79.629082,424.84504 26.978006,346.46523 26.978006,256.01679 Z M 285.45895,483.06624 c -9.68142,1.19361 -19.6281,1.85671 -29.70741,1.85671 -22.41317,0 -44.03061,-3.31555 -64.45446,-9.41618 l 24.93301,-72.94229 h 0.13262 l 43.3675,-126.65433 70.42247,192.83288 c 0.53049,1.06098 1.19361,2.12196 1.72409,3.05031 -14.8537,5.30489 -30.37051,9.01832 -46.41782,11.2729 z m 1.98933,-334.47354 c 13.79273,-0.66312 26.12661,-2.12197 26.12661,-2.12197 12.4665,-1.32622 10.87503,-19.6281 -1.45885,-18.83237 0,0 -37.13425,2.91769 -61.00627,2.91769 -22.41318,0 -60.34317,-2.91769 -60.34317,-2.91769 -12.20125,-0.79573 -13.79273,18.16927 -1.32622,18.83237 0,0 11.53814,1.45885 24.00464,2.12197 l 35.67541,97.74266 -50.13125,150.26111 -83.41945,-248.00377 c 13.92534,-0.66312 26.25923,-2.12197 26.25923,-2.12197 12.20125,-1.32622 10.87503,-19.6281 -1.45885,-18.83237 0,0 -37.00163,2.91769 -61.006282,2.91769 -4.376534,0 -9.416185,-0.13262 -14.721078,-0.26524 C 105.49043,68.223556 175.9129,27.24325 255.75154,27.24325 c 59.68007,0 113.9226,22.811043 154.63766,59.945297 -1.06098,0 -1.98934,-0.132622 -3.05032,-0.132622 -22.5458,0 -38.46048,19.628105 -38.46048,40.715065 0,18.83236 10.87503,34.74704 22.41318,53.57943 8.75308,15.25156 18.965,34.87967 18.965,63.12823 0,19.62811 -5.83539,44.29586 -17.37354,73.87064 l -22.94366,76.39047 z m 83.41946,305.29663 18.16927,-52.65107 51.72271,-149.59801 c 13.12961,-32.6251 17.37352,-58.75169 17.37352,-81.9606 0,-8.35521 -0.53048,-16.31255 -1.45884,-23.60678 17.90401,32.6251 28.11593,70.02459 28.11593,109.94392 0,10.60979 -0.66311,20.95433 -1.98933,31.16625 -9.81406,71.2182 -52.38583,132.09185 -111.93326,166.70629 z"
     id="path223"
     style="stroke-width:1.32622" /></svg>
